TITLE ""
FILE "2Q_t_1053-1069.mp3" MP3
  TRACK 01 AUDIO
    TITLE "2Q_t_1053-1069_01"
    INDEX 01 00:00:00
  TRACK 02 AUDIO
    TITLE "2Q_t_1053-1069_02"
    INDEX 01 00:00:14
  TRACK 03 AUDIO
    TITLE "2Q_t_1053-1069_03"
    INDEX 01 00:01:39
  TRACK 04 AUDIO
    TITLE "2Q_t_1053-1069_04"
    INDEX 01 00:02:13
  TRACK 05 AUDIO
    TITLE "2Q_t_1053-1069_05"
    INDEX 01 00:04:24
  TRACK 06 AUDIO
    TITLE "2Q_t_1053-1069_06"
    INDEX 01 00:04:67
  TRACK 07 AUDIO
    TITLE "2Q_t_1053-1069_07"
    INDEX 01 00:06:21
  TRACK 08 AUDIO
    TITLE "2Q_t_1053-1069_08"
    INDEX 01 00:06:70
  TRACK 09 AUDIO
    TITLE "2Q_t_1053-1069_09"
    INDEX 01 00:09:54
  TRACK 10 AUDIO
    TITLE "2Q_t_1053-1069_10"
    INDEX 01 00:10:24
  TRACK 11 AUDIO
    TITLE "2Q_t_1053-1069_11"
    INDEX 01 00:11:34
  TRACK 12 AUDIO
    TITLE "2Q_t_1053-1069_12"
    INDEX 01 00:12:04
  TRACK 13 AUDIO
    TITLE "2Q_t_1053-1069_13"
    INDEX 01 00:14:34
  TRACK 14 AUDIO
    TITLE "2Q_t_1053-1069_14"
    INDEX 01 00:15:06
  TRACK 15 AUDIO
    TITLE "2Q_t_1053-1069_15"
    INDEX 01 00:16:03
  TRACK 16 AUDIO
    TITLE "2Q_t_1053-1069_16"
    INDEX 01 00:16:54
  TRACK 17 AUDIO
    TITLE "2Q_t_1053-1069_17"
    INDEX 01 00:18:65
  TRACK 18 AUDIO
    TITLE "2Q_t_1053-1069_18"
    INDEX 01 00:19:35
  TRACK 19 AUDIO
    TITLE "2Q_t_1053-1069_19"
    INDEX 01 00:21:16
  TRACK 20 AUDIO
    TITLE "2Q_t_1053-1069_20"
    INDEX 01 00:21:65
  TRACK 21 AUDIO
    TITLE "2Q_t_1053-1069_21"
    INDEX 01 00:24:28
  TRACK 22 AUDIO
    TITLE "2Q_t_1053-1069_22"
    INDEX 01 00:24:75
  TRACK 23 AUDIO
    TITLE "2Q_t_1053-1069_23"
    INDEX 01 00:26:19
  TRACK 24 AUDIO
    TITLE "2Q_t_1053-1069_24"
    INDEX 01 00:26:66
  TRACK 25 AUDIO
    TITLE "2Q_t_1053-1069_25"
    INDEX 01 00:27:66
  TRACK 26 AUDIO
    TITLE "2Q_t_1053-1069_26"
    INDEX 01 00:28:40
  TRACK 27 AUDIO
    TITLE "2Q_t_1053-1069_27"
    INDEX 01 00:30:47
  TRACK 28 AUDIO
    TITLE "2Q_t_1053-1069_28"
    INDEX 01 00:31:17
  TRACK 29 AUDIO
    TITLE "2Q_t_1053-1069_29"
    INDEX 01 00:32:44
  TRACK 30 AUDIO
    TITLE "2Q_t_1053-1069_30"
    INDEX 01 00:33:18
  TRACK 31 AUDIO
    TITLE "2Q_t_1053-1069_31"
    INDEX 01 00:36:22
  TRACK 32 AUDIO
    TITLE "2Q_t_1053-1069_32"
    INDEX 01 00:36:67
  TRACK 33 AUDIO
    TITLE "2Q_t_1053-1069_33"
    INDEX 01 00:38:15
  TRACK 34 AUDIO
    TITLE "2Q_t_1053-1069_34"
    INDEX 01 00:38:64
  TRACK 35 AUDIO
    TITLE "2Q_t_1053-1069_35"
    INDEX 01 00:41:25
  TRACK 36 AUDIO
    TITLE "2Q_t_1053-1069_36"
    INDEX 01 00:41:70
  TRACK 37 AUDIO
    TITLE "2Q_t_1053-1069_37"
    INDEX 01 00:43:18
  TRACK 38 AUDIO
    TITLE "2Q_t_1053-1069_38"
    INDEX 01 00:43:67
  TRACK 39 AUDIO
    TITLE "2Q_t_1053-1069_39"
    INDEX 01 00:46:54
  TRACK 40 AUDIO
    TITLE "2Q_t_1053-1069_40"
    INDEX 01 00:47:24
  TRACK 41 AUDIO
    TITLE "2Q_t_1053-1069_41"
    INDEX 01 00:48:31
  TRACK 42 AUDIO
    TITLE "2Q_t_1053-1069_42"
    INDEX 01 00:49:05
  TRACK 43 AUDIO
    TITLE "2Q_t_1053-1069_43"
    INDEX 01 00:50:40
  TRACK 44 AUDIO
    TITLE "2Q_t_1053-1069_44"
    INDEX 01 00:51:08
  TRACK 45 AUDIO
    TITLE "2Q_t_1053-1069_45"
    INDEX 01 00:52:23
  TRACK 46 AUDIO
    TITLE "2Q_t_1053-1069_46"
    INDEX 01 00:52:70
  TRACK 47 AUDIO
    TITLE "2Q_t_1053-1069_47"
    INDEX 01 00:55:52
  TRACK 48 AUDIO
    TITLE "2Q_t_1053-1069_48"
    INDEX 01 00:56:25
  TRACK 49 AUDIO
    TITLE "2Q_t_1053-1069_49"
    INDEX 01 00:57:40
  TRACK 50 AUDIO
    TITLE "2Q_t_1053-1069_50"
    INDEX 01 00:58:27
  TRACK 51 AUDIO
    TITLE "2Q_t_1053-1069_51"
    INDEX 01 01:01:39
  TRACK 52 AUDIO
    TITLE "2Q_t_1053-1069_52"
    INDEX 01 01:02:09
  TRACK 53 AUDIO
    TITLE "2Q_t_1053-1069_53"
    INDEX 01 01:03:15
  TRACK 54 AUDIO
    TITLE "2Q_t_1053-1069_54"
    INDEX 01 01:04:01
  TRACK 55 AUDIO
    TITLE "2Q_t_1053-1069_55"
    INDEX 01 01:05:25
  TRACK 56 AUDIO
    TITLE "2Q_t_1053-1069_56"
    INDEX 01 01:05:70
  TRACK 57 AUDIO
    TITLE "2Q_t_1053-1069_57"
    INDEX 01 01:07:03
  TRACK 58 AUDIO
    TITLE "2Q_t_1053-1069_58"
    INDEX 01 01:07:50
  TRACK 59 AUDIO
    TITLE "2Q_t_1053-1069_59"
    INDEX 01 01:08:65
  TRACK 60 AUDIO
    TITLE "2Q_t_1053-1069_60"
    INDEX 01 01:09:33
  TRACK 61 AUDIO
    TITLE "2Q_t_1053-1069_61"
    INDEX 01 01:10:64
  TRACK 62 AUDIO
    TITLE "2Q_t_1053-1069_62"
    INDEX 01 01:11:36
  TRACK 63 AUDIO
    TITLE "2Q_t_1053-1069_63"
    INDEX 01 01:16:55
  TRACK 64 AUDIO
    TITLE "2Q_t_1053-1069_64"
    INDEX 01 01:17:25
  TRACK 65 AUDIO
    TITLE "2Q_t_1053-1069_65"
    INDEX 01 01:18:40
  TRACK 66 AUDIO
    TITLE "2Q_t_1053-1069_66"
    INDEX 01 01:19:18
  TRACK 67 AUDIO
    TITLE "2Q_t_1053-1069_67"
    INDEX 01 01:20:37
  TRACK 68 AUDIO
    TITLE "2Q_t_1053-1069_68"
    INDEX 01 01:21:05
  TRACK 69 AUDIO
    TITLE "2Q_t_1053-1069_69"
    INDEX 01 01:22:22
  TRACK 70 AUDIO
    TITLE "2Q_t_1053-1069_70"
    INDEX 01 01:22:69
  TRACK 71 AUDIO
    TITLE "2Q_t_1053-1069_71"
    INDEX 01 01:24:15
